<svg xmlns="http://www.w3.org/2000/svg" width="16" height="16" viewBox="0 0 12 12"><g style="font-style:normal;font-variant:normal;font-weight:400;font-stretch:normal;font-size:7.99999952px;line-height:0;font-family:Andika;-inkscape-font-specification:Andika;font-variant-ligatures:normal;font-variant-caps:normal;font-variant-numeric:normal;font-feature-settings:normal;text-align:start;writing-mode:lr-tb;text-anchor:start;opacity:1;vector-effect:none;fill:#000006;fill-opacity:1;stroke:none;stroke-width:.15000001;stroke-linecap:square;stroke-linejoin:bevel;stroke-miterlimit:4;stroke-dasharray:none;stroke-dashoffset:0;stroke-opacity:1;paint-order:markers stroke fill"><path d="M9.58225 3.8734781c0 1.2036667-.4216667 2.2655-1.265 3.1855-.8356667.9123333-1.8591667 1.564-3.0705 1.955l1.4145.4715c.5443333.161 1.0311667.2415 1.4605.2415.23 0 .3833333-.046.46-.138l.1955-.4255c.061333-.1226667.1801667-.2376667.3565-.345.1763333-.115.3335-.1725.4715-.1725.076667 0 .115.0345.115.1035 0 .2453333-.2491667.5711667-.7475.9775-.4983333.4063329-1.0273333.6094999-1.587.6094999-.4906667 0-1.288-.180167-2.392-.5404999-1.104-.3526667-1.8975-.529-2.3805-.529-.069 0-.1035-.026833-.1035-.0805 0-.099667.1073333-.2146667.322-.345.2223333-.1303333.3948333-.1955.5175-.1955h.1495c.4063333 0 .7436667-.00767 1.012-.023.276-.015333.5865-.0575.9315-.1265.345-.076667.644-.1763333.897-.299.253-.1303333.5136667-.3105.782-.5405.276-.2376667.5251667-.5251667.7475-.8625.5136667-.7513333.7705-1.564.7705-2.438 0-.7436667-.1993333-1.357-.598-1.84-.3986667-.4906667-.9391667-.736-1.6215-.736-.8433333 0-1.5946667.3795-2.254 1.1385-.6286667.7206667-.943 1.518-.943 2.392 0 .552.1533333 1.0081667.46 1.3685.3143333.3526667.7283333.529 1.242.529.3066667 0 .6248333-.072833.9545-.2185.3296667-.1456667.5251667-.2185.5865-.2185.069 0 .1035.023.1035.069 0 .076667-.1111667.1916667-.3335.345-.2146667.1533333-.5175.299-.9085.437-.3833333.138-.7628333.207-1.1385.207-.5903333 0-1.058-.1878333-1.403-.5635-.3373333-.3833333-.506-.874-.506-1.472 0-1.1423333.529-2.2041667 1.587-3.1855 1.0426667-.966 2.1428333-1.449 3.3005-1.449.736 0 1.3225.253 1.7595.759.437.4983333.6555 1.15.6555 1.955z" style="font-style:normal;font-variant:normal;font-weight:400;font-stretch:normal;font-size:11.5px;line-height:0;font-family:&quot;Gentium Book Plus&quot;;-inkscape-font-specification:&quot;Gentium Book Plus&quot;;stroke-width:.15000001" aria-label="𝓠"/></g></svg>